<svg width="128" height="128" viewBox="0 0 128 128" fill="none" xmlns="http://www.w3.org/2000/svg">
<g clip-path="url(#clip0)">
<path d="M126 63.5C126 96.3609 99.3609 123 66.5 123C58.3463 123 50.5757 121.36 43.5 118.392C43.5 114.5 40 109.5 31.3329 111.5C16.5783 100.672 7 83.2045 7 63.5C7 30.6391 33.6391 4 66.5 4C99.3609 4 126 30.6391 126 63.5Z" fill="white"/>
<path d="M46.3474 77.0636L46.3474 77.0635C46.5058 76.8529 47.1298 76.0404 47.7458 75.2391L47.7481 75.2361C48.0497 74.8406 48.3319 74.4746 48.5424 74.2037C48.6477 74.0681 48.7343 73.9574 48.796 73.8791C48.827 73.8397 48.8505 73.8102 48.8664 73.7904C48.8714 73.7842 48.8752 73.7796 48.8778 73.7763C48.9352 73.7106 49.0065 73.6183 49.0525 73.5588L49.0578 73.5519C49.1346 73.4526 49.2303 73.3268 49.3277 73.1971C49.3853 73.1222 49.4664 73.0158 49.5635 72.8884C49.8231 72.5476 50.1974 72.0564 50.5453 71.6131L50.5483 71.6092C51.3505 70.5764 51.6539 70.1803 52.6223 68.91C52.6752 68.8414 52.7549 68.738 52.8525 68.6114C53.1004 68.2898 53.4637 67.8183 53.7969 67.3876L46.3474 77.0636ZM46.3474 77.0636L46.3407 77.0723M46.3474 77.0636L46.3407 77.0723M46.3407 77.0723C46.1645 77.3011 45.9195 77.6006 45.7142 77.8433C45.6113 77.9649 45.5132 78.0784 45.4349 78.1656C45.3968 78.2079 45.3564 78.252 45.3191 78.2898C45.3017 78.3076 45.2744 78.3348 45.2427 78.363C45.2273 78.3766 45.1997 78.4005 45.1639 78.4269L45.1621 78.4283C45.1417 78.4435 45.0436 78.5165 44.9018 78.5674C44.5034 78.7105 43.8183 78.6137 43.5798 77.9498C43.5385 77.8349 43.5284 77.737 43.5266 77.719L43.5264 77.7172C43.5228 77.6837 43.5216 77.6569 43.5212 77.6436C43.5202 77.6157 43.5206 77.5931 43.5208 77.5833C43.5212 77.5611 43.5222 77.5407 43.5229 77.5282C43.5244 77.5007 43.5267 77.4678 43.5292 77.4342C43.5344 77.365 43.5422 77.2697 43.552 77.1557C43.5717 76.9265 43.6002 76.61 43.6336 76.25C43.7003 75.5304 43.7869 74.6305 43.8618 73.8951C43.9488 73.008 43.9829 72.5159 43.9923 72.0216C43.9934 71.7749 44.0014 71.4561 44.0113 71.2976C44.0152 71.2006 44.0148 71.0049 44.0096 70.8637L44.0094 70.8594C43.9721 69.7178 44.2953 68.4475 44.8703 67.2532L44.8716 67.2506C45.5407 65.8711 46.2052 65.1036 48.4148 62.9494L48.418 62.9463C48.9161 62.465 49.7146 61.6649 50.1989 61.1759C50.683 60.6872 51.5911 59.7727 52.2234 59.1518C52.8453 58.5412 53.7824 57.6005 54.3017 57.0656C54.7675 56.5857 55.6697 55.6771 56.4212 54.9202C56.526 54.8148 56.6278 54.7122 56.725 54.6142L56.729 54.6102C57.5253 53.8171 58.6198 52.707 59.1712 52.1478C60.2522 51.0383 60.8917 50.3868 62.6162 48.6491C62.9698 48.2916 63.4155 47.8391 63.8306 47.4176C64.1482 47.0951 64.4479 46.7908 64.6749 46.561M46.3407 77.0723L64.6749 46.561M58.9927 60.6605L58.9936 60.6593C59.9322 59.4486 60.5376 58.656 60.761 58.344L60.7631 58.3412C60.8044 58.283 60.8411 58.2338 60.8684 58.1989C60.9087 58.1639 60.9405 58.1312 60.9596 58.1109C61.0005 58.0675 61.0383 58.0222 61.0677 57.9857C61.1289 57.91 61.1968 57.8188 61.2612 57.7284M58.9927 60.6605L60.4474 57.1471M58.9927 60.6605C58.4926 61.3036 58.2277 61.6481 57.9485 62.0111C57.8217 62.1761 57.6919 62.3448 57.5358 62.5472M58.9927 60.6605L57.5358 62.5472M61.2612 57.7284C61.2616 57.7278 61.262 57.7272 61.2625 57.7266L60.4474 57.1471M61.2612 57.7284C61.2609 57.7287 61.2607 57.7291 61.2604 57.7294L60.4474 57.1471M61.2612 57.7284C61.458 57.4536 62.0355 56.6965 62.9815 55.4762M60.4474 57.1471C60.6573 56.8542 61.249 56.0789 62.1922 54.8622M62.9815 55.4762C62.9812 55.4767 62.9808 55.4772 62.9804 55.4777L62.1922 54.8622M62.9815 55.4762C63.6885 54.5709 63.9659 54.2099 64.7042 53.2494C64.8694 53.0346 65.0576 52.7897 65.2789 52.5019L65.28 52.5004C65.5825 52.1055 65.9921 51.5725 66.1931 51.3173L66.1982 51.3109L66.1981 51.3109C66.5939 50.8001 67.2795 49.9079 67.8211 49.1938M62.9815 55.4762C62.9819 55.4758 62.9822 55.4753 62.9826 55.4749L62.1922 54.8622M62.1922 54.8622L67.8211 49.1938M67.8211 49.1938C67.8202 49.195 67.8194 49.1961 67.8185 49.1972L67.0269 48.5862L67.8237 49.1904C67.8228 49.1916 67.822 49.1927 67.8211 49.1938ZM67.8211 49.1938C67.8901 49.1045 68.0893 48.8452 68.3762 48.4717C68.8926 47.7996 69.693 46.7579 70.5291 45.6718L70.53 45.6707C70.6986 45.4511 70.8592 45.2419 71.0122 45.0426C72.5195 43.0795 73.2896 42.0766 73.6977 41.5117C73.9204 41.2036 74.0688 40.9808 74.1726 40.7792C74.2685 40.5928 74.3207 40.4294 74.3537 40.3261C74.3584 40.3113 74.3628 40.2978 74.3668 40.2856M67.8211 49.1938L68.335 42.8416C68.3349 42.8417 68.3348 42.8418 68.3347 42.8419M74.3668 40.2856C74.366 40.2878 74.3652 40.2901 74.3644 40.2924L73.4196 39.9648L74.3687 40.2797C74.3681 40.2816 74.3674 40.2836 74.3668 40.2856ZM74.3668 40.2856C74.4213 40.1275 74.4683 39.9673 74.5009 39.8291C74.5169 39.7609 74.5334 39.6815 74.5441 39.6021C74.5492 39.5634 74.5555 39.5067 74.5565 39.4417L74.5566 39.4395C74.5572 39.3997 74.5599 39.2415 74.4949 39.0608C74.4207 38.8542 74.2695 38.6225 74.0036 38.4696C73.7489 38.3232 73.4948 38.31 73.3198 38.3281C73.0094 38.3603 72.7575 38.5089 72.621 38.5976C72.3066 38.8019 71.9566 39.1296 71.6051 39.5075L71.6017 39.5111C71.2564 39.8859 69.7241 41.4463 68.3347 42.8419M68.3347 42.8419C67.3271 43.8515 66.5168 44.6773 64.6749 46.561M68.3347 42.8419L64.6749 46.561M57.5358 62.5472C57.0954 63.1184 55.35 65.3811 53.7971 67.3873L57.5358 62.5472ZM73.738 40.2586C73.7381 40.2583 73.7336 40.2604 73.7243 40.2661C73.7332 40.2618 73.7379 40.259 73.738 40.2586Z" fill="#363437" stroke="white" stroke-width="2"/>
<path d="M73.1151 64.1308H72.9858L71.6785 60.8202C71.3114 59.8906 70.4172 59.271 69.412 59.271C68.4069 59.271 67.5127 59.8906 67.1456 60.8202L65.8383 64.1308H65.0941C64.4534 64.1308 63.8577 64.3826 63.415 64.8059C62.9637 64.3743 62.3633 64.1308 61.7357 64.1308H59.1192L56.8568 62.603C56.1872 62.1509 55.3382 62.0607 54.5887 62.3644L50.229 64.1308H25.7531C24.3938 64.1308 23.3138 65.2435 23.3138 66.5888C23.3138 67.9341 24.3938 69.0467 25.7531 69.0467H50.7011C51.0131 69.0467 51.322 68.9864 51.6111 68.8693L55.2122 67.4102L57.0193 68.6306C57.4204 68.9014 57.8929 69.0467 58.3774 69.0467H60.7216L62.4052 70.7522C62.984 71.3384 63.819 71.594 64.6275 71.4259C65.4355 71.2579 66.0993 70.6917 66.4011 69.9274L66.7488 69.0467H67.493C68.2581 69.0467 68.959 68.6877 69.412 68.1061C69.8651 68.6877 70.566 69.0467 71.3311 69.0467H72.236L73.4399 70.2662C74.1083 70.9432 75.1082 71.1708 76.0036 70.8424C76.8972 70.5147 77.514 69.6972 77.5987 68.7541L77.8807 65.6116L79.4543 85.7351C79.5526 86.9923 80.5852 87.9849 81.8576 87.9998C83.1302 88.0148 84.1857 87.0463 84.3127 85.7915L86.0082 69.0467H89.0826C89.7337 69.0467 90.3555 68.7846 90.812 68.3223L93.8803 65.2142L95.989 67.3503C96.4455 67.8126 97.0673 68.0748 97.7184 68.0748H105.874C107.234 68.0748 108.314 66.9621 108.314 65.6168C108.314 64.2715 107.234 63.1589 105.874 63.1589H98.7326L95.6096 59.9955C94.656 59.0295 93.1045 59.0295 92.1509 59.9955L88.0684 64.1308H83.8051C83.3995 64.1308 83.0169 64.2305 82.6802 64.4071L80.4797 36.2649C80.3809 35.0024 79.3401 34.0076 78.0621 34C76.784 33.9925 75.7317 34.9752 75.6185 36.2366L73.1151 64.1308Z" fill="#363437" stroke="white" stroke-width="2" stroke-linecap="round" stroke-linejoin="round"/>
<path d="M121.818 63.9001C121.818 59.4281 121.259 54.9561 120.421 50.7636L112.595 54.9561C113.154 57.7511 113.433 60.8256 113.433 63.9001C113.433 89.8936 93.0298 111.136 67.8748 111.136V119.8C97.7813 119.8 121.818 94.9246 121.818 63.9001ZM108.961 63.9001C108.961 61.3846 108.682 59.1486 108.402 56.6331L101.135 58.5896C101.415 60.2666 101.415 61.9436 101.415 63.6206C101.415 83.1856 84.9243 99.3966 67.8748 99.3966V105.825C90.5143 105.825 108.961 87.0986 108.961 63.9001ZM96.6633 46.5711L103.371 42.658C96.3838 30.0805 82.9678 21.6955 67.8748 21.6955V28.9625C77.9368 28.9625 91.6323 36.7885 96.6633 46.5711ZM89.3963 22.2545L93.5888 14.708C86.0423 10.5155 77.0983 8 67.8748 8V16.6645C75.7008 16.6645 82.9678 18.621 89.3963 22.2545ZM63.9618 119.8V99.3966C47.1918 99.3966 30.4217 83.4651 30.4217 63.9001C30.4217 44.3351 47.7508 28.9625 63.9618 28.9625V8C34.0552 8 10.0182 32.8755 10.0182 63.9001C10.0182 84.2864 20.397 102.018 36 111.781C41.5 109.5 42.8006 115.538 46.5 116.837C51.9713 118.759 57.8437 119.8 63.9618 119.8Z" fill="#363437"/>
<path d="M35.5105 76.5002C35.5105 76.5003 35.5102 76.5014 35.5097 76.5035C35.5103 76.5012 35.5106 76.5002 35.5105 76.5002ZM37.9123 81.0708C37.9089 81.0709 37.9025 81.0712 37.8936 81.0718C37.8981 81.0715 37.9025 81.0713 37.9067 81.0711L37.9067 81.071L37.9123 81.0708ZM37.1085 82.306C37.1095 82.3083 37.1101 82.3094 37.1101 82.3094C37.1101 82.3094 37.1096 82.3083 37.1085 82.306ZM31.3011 86.6136C30.8636 87.0273 30.2629 87.6204 29.9625 87.9214L37.9602 82.0696L38.0137 83.0682C38.0332 83.0671 38.0454 83.0657 38.0454 83.0657C38.0454 83.0657 38.0427 83.0661 38.0369 83.0669C38.0326 83.0675 38.0266 83.0683 38.0186 83.0695C37.9893 83.074 37.9476 83.081 37.8957 83.0905C37.7921 83.1095 37.6627 83.1356 37.5348 83.1647L37.5231 83.1674L37.5114 83.1697C37.1997 83.2328 36.6401 83.3236 36.2503 83.3648C35.8239 83.4144 35.69 83.4462 34.909 83.7553C34.1435 84.0586 34.0108 84.1364 33.6279 84.424L33.6258 84.4255C33.1738 84.7633 32.6418 85.2503 32.303 85.6293L32.2921 85.6415L32.2808 85.6534C32.1871 85.7515 31.7482 86.1821 31.3087 86.6064L31.3087 86.6065L31.3011 86.6136ZM37.3622 78.8259C37.5503 79.3495 37.6191 79.4816 38.1633 80.277L20.9607 105.171C20.9608 105.173 20.961 105.175 20.9611 105.177L20.9612 105.178C20.9673 105.261 20.9645 105.339 20.9622 105.387C20.9568 105.497 20.9435 105.629 20.9259 105.761L20.9259 105.761L20.9251 105.767C20.6541 107.712 19.8617 109.442 18.5211 111.065L18.5212 111.065L18.5151 111.072C18.1088 111.554 17.1784 112.34 16.4784 112.796C15.8378 113.219 15.5123 113.36 14.4739 113.733C13.4362 114.106 13.0945 114.205 12.3354 114.284C10.4278 114.495 8.64146 114.19 6.93823 113.369L6.93683 113.368C5.01674 112.439 3.49023 110.978 2.53288 109.113C2.35055 108.765 2.11935 108.256 1.9983 107.943L1.99823 107.943L1.99368 107.931C1.8565 107.561 1.71496 107.035 1.60843 106.556C1.50703 106.1 1.41059 105.571 1.40475 105.218C1.40257 105.125 1.39933 105.03 1.39579 104.953C1.39399 104.914 1.39223 104.881 1.39068 104.858C1.39012 104.849 1.38966 104.843 1.38936 104.839C1.322 104.345 1.38209 103.699 1.48727 103.087C1.59904 102.436 1.7813 101.714 2.01504 101.045C2.54044 99.5418 3.67634 97.9799 5.00693 96.8811C5.25219 96.6733 5.52856 96.4633 5.64287 96.3867L5.67606 96.3645L5.71084 96.3451C5.71045 96.3453 5.71082 96.3451 5.71206 96.3443C5.71649 96.3417 5.73202 96.3324 5.7635 96.313C5.79932 96.2909 5.84478 96.2625 5.89803 96.229C5.98927 96.1717 6.14033 96.0761 6.25462 96.0042C6.67061 95.7341 7.26469 95.4759 7.81926 95.2786C8.37923 95.0793 9.00561 94.9044 9.50081 94.8457C9.6565 94.8267 9.79451 94.8091 9.89211 94.7956C9.91613 94.7923 9.93577 94.7894 9.95136 94.7871C9.95167 94.7871 9.95197 94.787 9.95228 94.787C10.0094 94.7715 10.0573 94.7637 10.084 94.7598C10.1411 94.7514 10.1931 94.748 10.2261 94.7462C10.297 94.7425 10.3771 94.7419 10.4534 94.7424C10.6104 94.7434 10.8125 94.7499 11.0281 94.7597C11.4596 94.7793 11.985 94.8138 12.3843 94.853L12.3843 94.853L12.3939 94.854C13.4468 94.9676 13.847 94.9572 14.6522 94.8426C15.9308 94.6584 17.4369 93.9098 18.4332 92.9421L18.4349 92.9405C19.1088 92.289 22.2569 89.1461 22.7023 88.6796C22.7937 88.5839 23.1756 88.2105 23.5732 87.8217C23.6235 87.7725 23.674 87.7231 23.7242 87.674L23.7254 87.6728C24.5389 86.88 25.0015 86.4227 25.9845 85.4477C26.2582 85.1749 26.8377 84.6046 27.2852 84.1776C27.2861 84.1767 27.287 84.1759 27.2879 84.175L27.4156 84.0514C28.1479 83.3426 28.1875 83.3043 28.4348 83.0453C28.5746 82.8946 29.0129 82.4655 29.3984 82.0968L29.3994 82.0958C30.1258 81.403 30.6197 80.9218 31.3679 80.1697L31.3684 80.1693C31.5218 80.0153 31.8798 79.6721 32.26 79.3077C32.4237 79.1508 32.5915 78.99 32.7488 78.8386C33.015 78.5825 33.2617 78.3433 33.4447 78.164C33.5366 78.074 33.6104 78.001 33.662 77.9492C33.6781 77.9331 33.6909 77.9201 33.7008 77.91C33.7261 77.8781 33.7468 77.8549 33.7558 77.8449L33.758 77.8423C33.7895 77.8068 33.8248 77.7693 33.8594 77.7332C33.9295 77.6601 34.0187 77.5708 34.1168 77.4743C34.3141 77.2801 34.5652 77.0394 34.8124 76.8063C35.0595 76.5732 35.3075 76.343 35.4985 76.1703C35.5929 76.0849 35.6796 76.008 35.7475 75.9504C35.7793 75.9233 35.8191 75.8902 35.8584 75.8605C35.875 75.848 35.9132 75.8195 35.9614 75.7902C35.9824 75.7774 36.0367 75.7451 36.1103 75.7152C36.1467 75.7004 36.2166 75.6743 36.3082 75.6575C36.3843 75.6435 36.5807 75.6152 36.8137 75.695L36.9606 75.7453L37.0853 75.8377C37.3128 76.0063 37.4041 76.2197 37.4393 76.323C37.4777 76.4354 37.4881 76.5307 37.4918 76.5822C37.4993 76.6864 37.4896 76.7717 37.4845 76.8108C37.473 76.8994 37.4528 76.9807 37.4372 77.0373C37.4056 77.1522 37.3603 77.2819 37.3071 77.4113C37.2601 77.5471 37.1971 77.8345 37.1875 77.9944L37.1876 77.9944L37.1869 78.0045C37.1719 78.2169 37.1776 78.2523 37.1843 78.2883C37.1973 78.3582 37.2313 78.4728 37.3587 78.8165L37.3588 78.8165L37.3622 78.8259ZM33.7278 77.8817C33.7276 77.8819 33.7246 77.885 33.7196 77.8905C33.7255 77.8843 33.728 77.8816 33.7278 77.8817ZM5.68869 103.204L5.68758 103.208C5.54893 103.74 5.51272 104.152 5.54519 104.866C5.56575 105.236 5.6047 105.452 5.82646 106.128C6.14645 107.099 6.33595 107.47 6.60417 107.813L6.60753 107.818C7.26313 108.667 7.9737 109.246 8.84406 109.661L8.84821 109.663C10.5303 110.475 12.6038 110.337 14.1436 109.318L14.1458 109.317C16.2734 107.918 17.2143 105.589 16.6581 103.227L16.6572 103.223C16.3617 101.946 15.6218 100.835 14.483 99.9933C13.6416 99.3719 12.8082 99.0417 11.899 98.949L11.899 98.949L11.893 98.9484C11.4638 98.902 11.2651 98.8865 11.0985 98.8875C10.9407 98.8885 10.7888 98.9044 10.4485 98.9522C8.1349 99.2846 6.26117 100.964 5.68869 103.204Z" fill="#363437" stroke="white" stroke-width="2"/>
<mask id="path-6-outside-1" maskUnits="userSpaceOnUse" x="-0.756305" y="24.1589" width="82.0015" height="107.326" fill="black">
<rect fill="white" x="-0.756305" y="24.1589" width="82.0015" height="107.326"/>
<path d="M30.6317 121.306C30.6713 121.375 30.8433 121.666 31.0153 121.956C31.1873 122.247 31.444 122.628 31.5887 122.801C31.7268 122.976 31.8787 123.169 31.9134 123.224C32.0387 123.427 33.0131 124.322 33.4721 124.66C34.4309 125.366 36.1523 126.022 37.4197 126.167C40.1517 126.483 42.9349 125.543 44.8386 123.659C45.4629 123.037 46.1993 121.955 46.6051 121.059C47.2762 119.565 47.4928 118.121 47.3061 116.328C47.2257 115.562 46.4952 113.528 46.0646 112.873C45.6292 112.204 45.2312 111.702 44.7649 111.239C44.024 110.493 43.8132 110.261 43.4361 109.796C43.2338 109.546 43.0214 109.247 42.9699 109.146C42.9227 109.035 42.7878 108.806 42.683 108.619C42.4343 108.198 42.1359 107.367 42.0628 106.914C42.0316 106.722 41.9802 106.433 41.9518 106.271C41.8665 105.866 41.8651 105.131 41.9437 103.993C42.0059 103.018 42.0231 102.794 42.1469 101.489C42.1804 101.102 42.2449 100.321 42.2875 99.7506C42.3301 99.1802 42.3791 98.5023 42.4066 98.2449C42.4933 97.3585 42.5621 96.5685 42.6342 95.5373C42.7114 94.4368 42.7188 94.3741 42.7693 93.9508C42.7904 93.8007 42.8493 93.0668 42.9058 92.3263C42.9624 91.5857 43.0267 90.6999 43.0612 90.3574C43.089 90.0173 43.1276 89.5608 43.1495 89.3503C43.169 89.1333 43.2046 88.6478 43.2338 88.2697C43.2842 87.5539 43.3209 87.1131 43.4534 85.6025C43.4956 85.1147 43.5527 84.3965 43.5819 84.0184C43.6087 83.6337 43.6612 83.0071 43.697 82.6266C43.7304 82.2395 43.8094 81.3108 43.8635 80.5637C43.9153 79.8099 43.971 79.1296 43.9827 79.0579C43.9987 78.9771 44.0196 78.7221 44.041 78.4893C44.0557 78.2589 44.1537 77.0909 44.2445 75.9029C44.342 74.7125 44.4416 73.4239 44.4708 73.0458C44.5231 72.3143 44.5988 71.4393 44.6268 71.2041C44.6362 71.1258 44.6798 70.5999 44.7224 70.0294C44.7988 68.9892 44.8633 68.2083 44.95 67.3219C44.9775 67.0644 45.0252 66.4246 45.0598 65.8945C45.0944 65.3644 45.1453 64.6709 45.1803 64.3508C45.2087 64.033 45.2708 63.2454 45.3209 62.6122C45.4005 61.5183 45.4302 61.1625 45.5372 59.9987C45.5623 59.7346 45.6394 58.8217 45.7024 57.9738C45.8864 55.6045 46.0176 53.9443 46.0866 53.2593C46.1144 52.9192 46.1896 52.0219 46.2438 51.2748C46.2955 50.521 46.3512 49.8407 46.3629 49.769C46.3998 49.4332 46.4774 48.5425 46.5458 47.5426C46.6498 46.0573 46.687 45.6388 46.7099 45.4731C46.7217 45.4013 46.775 44.7145 46.8286 43.945C46.8846 43.1821 46.9573 42.4658 46.977 42.3537C47.0058 42.2458 47.0061 42.1632 46.9795 42.1727C46.9596 42.1799 46.957 42.0683 46.9871 41.9224C47.0196 41.7832 47.0777 41.1096 47.1268 40.4318C47.2058 39.3156 47.235 38.9374 47.3544 37.5366C47.3758 37.3039 47.4109 36.7961 47.4401 36.418C47.4881 35.6956 47.5615 34.8139 47.5962 34.5764C47.6079 34.5047 47.6636 33.8245 47.7153 33.0706C47.7695 32.3235 47.838 31.4286 47.8725 31.0861C47.9004 30.746 47.9389 30.2895 47.9608 30.079C47.9804 29.862 48.016 29.3765 48.0452 28.9984C48.072 28.6137 48.1071 28.1059 48.1328 27.8641C48.1518 27.6247 48.1647 27.41 48.1575 27.3901C48.1336 27.3236 47.7621 27.4796 47.5956 27.622C47.3899 27.8009 47.2688 28.0695 47.1752 28.5608C47.0214 29.3437 46.7168 30.7511 46.6617 30.9735C46.622 31.0927 46.6023 31.2049 46.6095 31.2248C46.6166 31.2447 46.4839 31.8776 46.3206 32.634C46.1548 33.3838 45.9957 34.1311 45.9747 34.2813C45.9469 34.4338 45.8768 34.7815 45.8094 35.0533C45.742 35.3251 45.6837 35.6012 45.6762 35.6639C45.6754 35.7242 45.6109 36.025 45.5397 36.3281C45.4686 36.6312 45.4188 36.8892 45.4259 36.9092C45.4331 36.9291 45.355 37.3173 45.2471 37.7687C45.1392 38.22 45.0611 38.6082 45.0659 38.6215C45.0707 38.6348 44.9926 39.023 44.8847 39.4744C44.7768 39.9257 44.6987 40.3139 44.7035 40.3272C44.7106 40.3471 44.673 40.5557 44.616 40.7938C44.4756 41.3844 44.1659 42.8611 44.1025 43.2065C44.0748 43.359 43.9609 43.94 43.84 44.5011C43.5524 45.8724 43.3552 46.806 43.247 47.34C43.1364 47.8674 42.9642 48.7245 42.8752 49.1241C42.8408 49.279 42.7622 49.6448 42.702 49.9366C42.6418 50.2283 42.5109 50.8455 42.4102 51.3168C42.3095 51.7881 42.2092 52.2818 42.1791 52.4276C42.1232 52.7103 41.8681 53.9423 41.5867 55.2888C41.4859 55.7601 41.3655 56.3436 41.3175 56.5859C41.1669 57.3152 41.0356 57.9101 40.9719 58.1505C40.9346 58.2764 40.9173 58.3952 40.9244 58.4151C40.934 58.4417 40.8823 58.7154 40.8069 59.0275C40.7315 59.3397 40.6798 59.6134 40.6846 59.6267C40.6917 59.6466 40.6112 60.0281 40.5033 60.4795C40.3954 60.9309 40.3174 61.3191 40.3221 61.3324C40.3293 61.3523 40.2818 61.6169 40.2107 61.9201C40.1438 62.2142 40.0751 62.524 40.0657 62.6024C40.0497 62.6831 39.9274 63.2823 39.7886 63.9398C39.6521 64.604 39.4973 65.3424 39.4493 65.5847C39.3947 65.8294 39.3142 66.2109 39.2681 66.4375C39.2129 66.6599 39.1231 67.1198 39.0549 67.4519C38.9866 67.784 38.8459 68.4573 38.7457 68.9509C38.6365 69.4403 38.5 70.1045 38.4427 70.4252C38.3787 70.7483 38.2766 71.2576 38.2121 71.5584C38.0832 72.1599 37.8625 73.237 37.8103 73.4883C37.7966 73.5758 37.6677 74.1773 37.5331 74.8258C37.3985 75.4743 37.2479 76.2037 37.1999 76.446C37.1453 76.6907 37.0672 77.0788 37.0145 77.3078C36.7955 78.2643 36.793 78.4453 37.0054 79.0366C37.194 79.5615 37.5133 80.137 38.3222 81.4069C38.5123 81.7062 38.7143 82.0387 38.7748 82.1445C38.8263 82.246 38.9721 82.4638 39.0921 82.6307C39.4287 83.0874 39.9269 84.0563 40.1656 84.7207C40.4091 85.3985 40.6487 86.4827 40.6625 86.9805C40.669 87.1657 40.6856 87.3998 40.6924 87.5023C40.7059 87.6025 40.713 87.8101 40.7009 87.9644C40.6955 88.1164 40.6944 88.2594 40.7015 88.2793C40.7087 88.2992 40.6929 88.485 40.6667 88.7044C40.6381 88.9173 40.5899 89.5348 40.5511 90.0739C40.4926 91.0177 40.4174 91.915 40.3794 92.2062C40.3677 92.2779 40.2615 93.3814 40.1481 94.6525C39.7773 98.6945 39.295 103.032 39.0836 104.218C38.781 105.902 38.2148 107.103 37.272 108.05C36.6719 108.655 36.0092 109.066 34.8081 109.565C34.0208 109.901 33.6412 110.097 33.2457 110.374C32.6154 110.833 31.8948 111.542 31.414 112.188C30.8574 112.935 30.201 114.387 29.983 115.388C29.9161 115.682 29.7268 117.243 29.7533 117.233C29.7733 117.226 29.7721 117.369 29.7606 117.546C29.7514 117.729 29.75 117.955 29.7701 118.052C29.7836 118.153 29.84 118.56 29.9006 118.958C29.9987 119.628 30.3968 120.903 30.6317 121.306ZM32.0279 118.532C31.9999 118.287 31.9594 117.986 31.9388 117.866C31.8893 117.561 32.0117 116.294 32.155 115.733C32.3261 115.018 32.6278 114.355 33.0797 113.712C33.6049 112.961 33.8708 112.678 34.595 112.125C35.0996 111.734 35.2761 111.64 36.0088 111.362C37.1046 110.946 37.3401 110.891 38.0804 110.843C40.5403 110.694 42.6814 111.725 44.0791 113.736C44.5873 114.462 45.0552 115.764 45.1415 116.693C45.4119 119.492 44.0169 122.124 41.635 123.325C40.4474 123.924 38.9866 124.201 37.7638 124.055C36.3282 123.881 34.8237 123.139 33.878 122.136C33.6858 121.935 33.4845 121.729 33.4322 121.688C33.3318 121.597 32.6477 120.507 32.4699 120.158C32.3059 119.827 32.0911 119.042 32.0279 118.532ZM38.5679 77.2673C38.6487 76.8032 38.7386 76.6358 39.1069 76.2409C39.4533 75.8689 40.1064 75.6192 40.6388 75.6605C41.3528 75.7266 42.0914 76.2789 42.3254 76.9301C42.483 77.3686 42.4286 78.0108 42.1964 78.4919C41.9149 79.0657 41.3667 79.5027 40.8411 79.564C40.173 79.6465 39.6987 79.5168 39.2183 79.1193C38.7012 78.6824 38.4386 77.9515 38.5679 77.2673Z"/>
</mask>
<path d="M30.6317 121.306C30.6713 121.375 30.8433 121.666 31.0153 121.956C31.1873 122.247 31.444 122.628 31.5887 122.801C31.7268 122.976 31.8787 123.169 31.9134 123.224C32.0387 123.427 33.0131 124.322 33.4721 124.66C34.4309 125.366 36.1523 126.022 37.4197 126.167C40.1517 126.483 42.9349 125.543 44.8386 123.659C45.4629 123.037 46.1993 121.955 46.6051 121.059C47.2762 119.565 47.4928 118.121 47.3061 116.328C47.2257 115.562 46.4952 113.528 46.0646 112.873C45.6292 112.204 45.2312 111.702 44.7649 111.239C44.024 110.493 43.8132 110.261 43.4361 109.796C43.2338 109.546 43.0214 109.247 42.9699 109.146C42.9227 109.035 42.7878 108.806 42.683 108.619C42.4343 108.198 42.1359 107.367 42.0628 106.914C42.0316 106.722 41.9802 106.433 41.9518 106.271C41.8665 105.866 41.8651 105.131 41.9437 103.993C42.0059 103.018 42.0231 102.794 42.1469 101.489C42.1804 101.102 42.2449 100.321 42.2875 99.7506C42.3301 99.1802 42.3791 98.5023 42.4066 98.2449C42.4933 97.3585 42.5621 96.5685 42.6342 95.5373C42.7114 94.4368 42.7188 94.3741 42.7693 93.9508C42.7904 93.8007 42.8493 93.0668 42.9058 92.3263C42.9624 91.5857 43.0267 90.6999 43.0612 90.3574C43.089 90.0173 43.1276 89.5608 43.1495 89.3503C43.169 89.1333 43.2046 88.6478 43.2338 88.2697C43.2842 87.5539 43.3209 87.1131 43.4534 85.6025C43.4956 85.1147 43.5527 84.3965 43.5819 84.0184C43.6087 83.6337 43.6612 83.0071 43.697 82.6266C43.7304 82.2395 43.8094 81.3108 43.8635 80.5637C43.9153 79.8099 43.971 79.1296 43.9827 79.0579C43.9987 78.9771 44.0196 78.7221 44.041 78.4893C44.0557 78.2589 44.1537 77.0909 44.2445 75.9029C44.342 74.7125 44.4416 73.4239 44.4708 73.0458C44.5231 72.3143 44.5988 71.4393 44.6268 71.2041C44.6362 71.1258 44.6798 70.5999 44.7224 70.0294C44.7988 68.9892 44.8633 68.2083 44.95 67.3219C44.9775 67.0644 45.0252 66.4246 45.0598 65.8945C45.0944 65.3644 45.1453 64.6709 45.1803 64.3508C45.2087 64.033 45.2708 63.2454 45.3209 62.6122C45.4005 61.5183 45.4302 61.1625 45.5372 59.9987C45.5623 59.7346 45.6394 58.8217 45.7024 57.9738C45.8864 55.6045 46.0176 53.9443 46.0866 53.2593C46.1144 52.9192 46.1896 52.0219 46.2438 51.2748C46.2955 50.521 46.3512 49.8407 46.3629 49.769C46.3998 49.4332 46.4774 48.5425 46.5458 47.5426C46.6498 46.0573 46.687 45.6388 46.7099 45.4731C46.7217 45.4013 46.775 44.7145 46.8286 43.945C46.8846 43.1821 46.9573 42.4658 46.977 42.3537C47.0058 42.2458 47.0061 42.1632 46.9795 42.1727C46.9596 42.1799 46.957 42.0683 46.9871 41.9224C47.0196 41.7832 47.0777 41.1096 47.1268 40.4318C47.2058 39.3156 47.235 38.9374 47.3544 37.5366C47.3758 37.3039 47.4109 36.7961 47.4401 36.418C47.4881 35.6956 47.5615 34.8139 47.5962 34.5764C47.6079 34.5047 47.6636 33.8245 47.7153 33.0706C47.7695 32.3235 47.838 31.4286 47.8725 31.0861C47.9004 30.746 47.9389 30.2895 47.9608 30.079C47.9804 29.862 48.016 29.3765 48.0452 28.9984C48.072 28.6137 48.1071 28.1059 48.1328 27.8641C48.1518 27.6247 48.1647 27.41 48.1575 27.3901C48.1336 27.3236 47.7621 27.4796 47.5956 27.622C47.3899 27.8009 47.2688 28.0695 47.1752 28.5608C47.0214 29.3437 46.7168 30.7511 46.6617 30.9735C46.622 31.0927 46.6023 31.2049 46.6095 31.2248C46.6166 31.2447 46.4839 31.8776 46.3206 32.634C46.1548 33.3838 45.9957 34.1311 45.9747 34.2813C45.9469 34.4338 45.8768 34.7815 45.8094 35.0533C45.742 35.3251 45.6837 35.6012 45.6762 35.6639C45.6754 35.7242 45.6109 36.025 45.5397 36.3281C45.4686 36.6312 45.4188 36.8892 45.4259 36.9092C45.4331 36.9291 45.355 37.3173 45.2471 37.7687C45.1392 38.22 45.0611 38.6082 45.0659 38.6215C45.0707 38.6348 44.9926 39.023 44.8847 39.4744C44.7768 39.9257 44.6987 40.3139 44.7035 40.3272C44.7106 40.3471 44.673 40.5557 44.616 40.7938C44.4756 41.3844 44.1659 42.8611 44.1025 43.2065C44.0748 43.359 43.9609 43.94 43.84 44.5011C43.5524 45.8724 43.3552 46.806 43.247 47.34C43.1364 47.8674 42.9642 48.7245 42.8752 49.1241C42.8408 49.279 42.7622 49.6448 42.702 49.9366C42.6418 50.2283 42.5109 50.8455 42.4102 51.3168C42.3095 51.7881 42.2092 52.2818 42.1791 52.4276C42.1232 52.7103 41.8681 53.9423 41.5867 55.2888C41.4859 55.7601 41.3655 56.3436 41.3175 56.5859C41.1669 57.3152 41.0356 57.9101 40.9719 58.1505C40.9346 58.2764 40.9173 58.3952 40.9244 58.4151C40.934 58.4417 40.8823 58.7154 40.8069 59.0275C40.7315 59.3397 40.6798 59.6134 40.6846 59.6267C40.6917 59.6466 40.6112 60.0281 40.5033 60.4795C40.3954 60.9309 40.3174 61.3191 40.3221 61.3324C40.3293 61.3523 40.2818 61.6169 40.2107 61.9201C40.1438 62.2142 40.0751 62.524 40.0657 62.6024C40.0497 62.6831 39.9274 63.2823 39.7886 63.9398C39.6521 64.604 39.4973 65.3424 39.4493 65.5847C39.3947 65.8294 39.3142 66.2109 39.2681 66.4375C39.2129 66.6599 39.1231 67.1198 39.0549 67.4519C38.9866 67.784 38.8459 68.4573 38.7457 68.9509C38.6365 69.4403 38.5 70.1045 38.4427 70.4252C38.3787 70.7483 38.2766 71.2576 38.2121 71.5584C38.0832 72.1599 37.8625 73.237 37.8103 73.4883C37.7966 73.5758 37.6677 74.1773 37.5331 74.8258C37.3985 75.4743 37.2479 76.2037 37.1999 76.446C37.1453 76.6907 37.0672 77.0788 37.0145 77.3078C36.7955 78.2643 36.793 78.4453 37.0054 79.0366C37.194 79.5615 37.5133 80.137 38.3222 81.4069C38.5123 81.7062 38.7143 82.0387 38.7748 82.1445C38.8263 82.246 38.9721 82.4638 39.0921 82.6307C39.4287 83.0874 39.9269 84.0563 40.1656 84.7207C40.4091 85.3985 40.6487 86.4827 40.6625 86.9805C40.669 87.1657 40.6856 87.3998 40.6924 87.5023C40.7059 87.6025 40.713 87.8101 40.7009 87.9644C40.6955 88.1164 40.6944 88.2594 40.7015 88.2793C40.7087 88.2992 40.6929 88.485 40.6667 88.7044C40.6381 88.9173 40.5899 89.5348 40.5511 90.0739C40.4926 91.0177 40.4174 91.915 40.3794 92.2062C40.3677 92.2779 40.2615 93.3814 40.1481 94.6525C39.7773 98.6945 39.295 103.032 39.0836 104.218C38.781 105.902 38.2148 107.103 37.272 108.05C36.6719 108.655 36.0092 109.066 34.8081 109.565C34.0208 109.901 33.6412 110.097 33.2457 110.374C32.6154 110.833 31.8948 111.542 31.414 112.188C30.8574 112.935 30.201 114.387 29.983 115.388C29.9161 115.682 29.7268 117.243 29.7533 117.233C29.7733 117.226 29.7721 117.369 29.7606 117.546C29.7514 117.729 29.75 117.955 29.7701 118.052C29.7836 118.153 29.84 118.56 29.9006 118.958C29.9987 119.628 30.3968 120.903 30.6317 121.306ZM32.0279 118.532C31.9999 118.287 31.9594 117.986 31.9388 117.866C31.8893 117.561 32.0117 116.294 32.155 115.733C32.3261 115.018 32.6278 114.355 33.0797 113.712C33.6049 112.961 33.8708 112.678 34.595 112.125C35.0996 111.734 35.2761 111.64 36.0088 111.362C37.1046 110.946 37.3401 110.891 38.0804 110.843C40.5403 110.694 42.6814 111.725 44.0791 113.736C44.5873 114.462 45.0552 115.764 45.1415 116.693C45.4119 119.492 44.0169 122.124 41.635 123.325C40.4474 123.924 38.9866 124.201 37.7638 124.055C36.3282 123.881 34.8237 123.139 33.878 122.136C33.6858 121.935 33.4845 121.729 33.4322 121.688C33.3318 121.597 32.6477 120.507 32.4699 120.158C32.3059 119.827 32.0911 119.042 32.0279 118.532ZM38.5679 77.2673C38.6487 76.8032 38.7386 76.6358 39.1069 76.2409C39.4533 75.8689 40.1064 75.6192 40.6388 75.6605C41.3528 75.7266 42.0914 76.2789 42.3254 76.9301C42.483 77.3686 42.4286 78.0108 42.1964 78.4919C41.9149 79.0657 41.3667 79.5027 40.8411 79.564C40.173 79.6465 39.6987 79.5168 39.2183 79.1193C38.7012 78.6824 38.4386 77.9515 38.5679 77.2673Z" fill="#363437"/>
<path d="M30.6317 121.306C30.6713 121.375 30.8433 121.666 31.0153 121.956C31.1873 122.247 31.444 122.628 31.5887 122.801C31.7268 122.976 31.8787 123.169 31.9134 123.224C32.0387 123.427 33.0131 124.322 33.4721 124.66C34.4309 125.366 36.1523 126.022 37.4197 126.167C40.1517 126.483 42.9349 125.543 44.8386 123.659C45.4629 123.037 46.1993 121.955 46.6051 121.059C47.2762 119.565 47.4928 118.121 47.3061 116.328C47.2257 115.562 46.4952 113.528 46.0646 112.873C45.6292 112.204 45.2312 111.702 44.7649 111.239C44.024 110.493 43.8132 110.261 43.4361 109.796C43.2338 109.546 43.0214 109.247 42.9699 109.146C42.9227 109.035 42.7878 108.806 42.683 108.619C42.4343 108.198 42.1359 107.367 42.0628 106.914C42.0316 106.722 41.9802 106.433 41.9518 106.271C41.8665 105.866 41.8651 105.131 41.9437 103.993C42.0059 103.018 42.0231 102.794 42.1469 101.489C42.1804 101.102 42.2449 100.321 42.2875 99.7506C42.3301 99.1802 42.3791 98.5023 42.4066 98.2449C42.4933 97.3585 42.5621 96.5685 42.6342 95.5373C42.7114 94.4368 42.7188 94.3741 42.7693 93.9508C42.7904 93.8007 42.8493 93.0668 42.9058 92.3263C42.9624 91.5857 43.0267 90.6999 43.0612 90.3574C43.089 90.0173 43.1276 89.5608 43.1495 89.3503C43.169 89.1333 43.2046 88.6478 43.2338 88.2697C43.2842 87.5539 43.3209 87.1131 43.4534 85.6025C43.4956 85.1147 43.5527 84.3965 43.5819 84.0184C43.6087 83.6337 43.6612 83.0071 43.697 82.6266C43.7304 82.2395 43.8094 81.3108 43.8635 80.5637C43.9153 79.8099 43.971 79.1296 43.9827 79.0579C43.9987 78.9771 44.0196 78.7221 44.041 78.4893C44.0557 78.2589 44.1537 77.0909 44.2445 75.9029C44.342 74.7125 44.4416 73.4239 44.4708 73.0458C44.5231 72.3143 44.5988 71.4393 44.6268 71.2041C44.6362 71.1258 44.6798 70.5999 44.7224 70.0294C44.7988 68.9892 44.8633 68.2083 44.95 67.3219C44.9775 67.0644 45.0252 66.4246 45.0598 65.8945C45.0944 65.3644 45.1453 64.6709 45.1803 64.3508C45.2087 64.033 45.2708 63.2454 45.3209 62.6122C45.4005 61.5183 45.4302 61.1625 45.5372 59.9987C45.5623 59.7346 45.6394 58.8217 45.7024 57.9738C45.8864 55.6045 46.0176 53.9443 46.0866 53.2593C46.1144 52.9192 46.1896 52.0219 46.2438 51.2748C46.2955 50.521 46.3512 49.8407 46.3629 49.769C46.3998 49.4332 46.4774 48.5425 46.5458 47.5426C46.6498 46.0573 46.687 45.6388 46.7099 45.4731C46.7217 45.4013 46.775 44.7145 46.8286 43.945C46.8846 43.1821 46.9573 42.4658 46.977 42.3537C47.0058 42.2458 47.0061 42.1632 46.9795 42.1727C46.9596 42.1799 46.957 42.0683 46.9871 41.9224C47.0196 41.7832 47.0777 41.1096 47.1268 40.4318C47.2058 39.3156 47.235 38.9374 47.3544 37.5366C47.3758 37.3039 47.4109 36.7961 47.4401 36.418C47.4881 35.6956 47.5615 34.8139 47.5962 34.5764C47.6079 34.5047 47.6636 33.8245 47.7153 33.0706C47.7695 32.3235 47.838 31.4286 47.8725 31.0861C47.9004 30.746 47.9389 30.2895 47.9608 30.079C47.9804 29.862 48.016 29.3765 48.0452 28.9984C48.072 28.6137 48.1071 28.1059 48.1328 27.8641C48.1518 27.6247 48.1647 27.41 48.1575 27.3901C48.1336 27.3236 47.7621 27.4796 47.5956 27.622C47.3899 27.8009 47.2688 28.0695 47.1752 28.5608C47.0214 29.3437 46.7168 30.7511 46.6617 30.9735C46.622 31.0927 46.6023 31.2049 46.6095 31.2248C46.6166 31.2447 46.4839 31.8776 46.3206 32.634C46.1548 33.3838 45.9957 34.1311 45.9747 34.2813C45.9469 34.4338 45.8768 34.7815 45.8094 35.0533C45.742 35.3251 45.6837 35.6012 45.6762 35.6639C45.6754 35.7242 45.6109 36.025 45.5397 36.3281C45.4686 36.6312 45.4188 36.8892 45.4259 36.9092C45.4331 36.9291 45.355 37.3173 45.2471 37.7687C45.1392 38.22 45.0611 38.6082 45.0659 38.6215C45.0707 38.6348 44.9926 39.023 44.8847 39.4744C44.7768 39.9257 44.6987 40.3139 44.7035 40.3272C44.7106 40.3471 44.673 40.5557 44.616 40.7938C44.4756 41.3844 44.1659 42.8611 44.1025 43.2065C44.0748 43.359 43.9609 43.94 43.84 44.5011C43.5524 45.8724 43.3552 46.806 43.247 47.34C43.1364 47.8674 42.9642 48.7245 42.8752 49.1241C42.8408 49.279 42.7622 49.6448 42.702 49.9366C42.6418 50.2283 42.5109 50.8455 42.4102 51.3168C42.3095 51.7881 42.2092 52.2818 42.1791 52.4276C42.1232 52.7103 41.8681 53.9423 41.5867 55.2888C41.4859 55.7601 41.3655 56.3436 41.3175 56.5859C41.1669 57.3152 41.0356 57.9101 40.9719 58.1505C40.9346 58.2764 40.9173 58.3952 40.9244 58.4151C40.934 58.4417 40.8823 58.7154 40.8069 59.0275C40.7315 59.3397 40.6798 59.6134 40.6846 59.6267C40.6917 59.6466 40.6112 60.0281 40.5033 60.4795C40.3954 60.9309 40.3174 61.3191 40.3221 61.3324C40.3293 61.3523 40.2818 61.6169 40.2107 61.9201C40.1438 62.2142 40.0751 62.524 40.0657 62.6024C40.0497 62.6831 39.9274 63.2823 39.7886 63.9398C39.6521 64.604 39.4973 65.3424 39.4493 65.5847C39.3947 65.8294 39.3142 66.2109 39.2681 66.4375C39.2129 66.6599 39.1231 67.1198 39.0549 67.4519C38.9866 67.784 38.8459 68.4573 38.7457 68.9509C38.6365 69.4403 38.5 70.1045 38.4427 70.4252C38.3787 70.7483 38.2766 71.2576 38.2121 71.5584C38.0832 72.1599 37.8625 73.237 37.8103 73.4883C37.7966 73.5758 37.6677 74.1773 37.5331 74.8258C37.3985 75.4743 37.2479 76.2037 37.1999 76.446C37.1453 76.6907 37.0672 77.0788 37.0145 77.3078C36.7955 78.2643 36.793 78.4453 37.0054 79.0366C37.194 79.5615 37.5133 80.137 38.3222 81.4069C38.5123 81.7062 38.7143 82.0387 38.7748 82.1445C38.8263 82.246 38.9721 82.4638 39.0921 82.6307C39.4287 83.0874 39.9269 84.0563 40.1656 84.7207C40.4091 85.3985 40.6487 86.4827 40.6625 86.9805C40.669 87.1657 40.6856 87.3998 40.6924 87.5023C40.7059 87.6025 40.713 87.8101 40.7009 87.9644C40.6955 88.1164 40.6944 88.2594 40.7015 88.2793C40.7087 88.2992 40.6929 88.485 40.6667 88.7044C40.6381 88.9173 40.5899 89.5348 40.5511 90.0739C40.4926 91.0177 40.4174 91.915 40.3794 92.2062C40.3677 92.2779 40.2615 93.3814 40.1481 94.6525C39.7773 98.6945 39.295 103.032 39.0836 104.218C38.781 105.902 38.2148 107.103 37.272 108.05C36.6719 108.655 36.0092 109.066 34.8081 109.565C34.0208 109.901 33.6412 110.097 33.2457 110.374C32.6154 110.833 31.8948 111.542 31.414 112.188C30.8574 112.935 30.201 114.387 29.983 115.388C29.9161 115.682 29.7268 117.243 29.7533 117.233C29.7733 117.226 29.7721 117.369 29.7606 117.546C29.7514 117.729 29.75 117.955 29.7701 118.052C29.7836 118.153 29.84 118.56 29.9006 118.958C29.9987 119.628 30.3968 120.903 30.6317 121.306ZM32.0279 118.532C31.9999 118.287 31.9594 117.986 31.9388 117.866C31.8893 117.561 32.0117 116.294 32.155 115.733C32.3261 115.018 32.6278 114.355 33.0797 113.712C33.6049 112.961 33.8708 112.678 34.595 112.125C35.0996 111.734 35.2761 111.64 36.0088 111.362C37.1046 110.946 37.3401 110.891 38.0804 110.843C40.5403 110.694 42.6814 111.725 44.0791 113.736C44.5873 114.462 45.0552 115.764 45.1415 116.693C45.4119 119.492 44.0169 122.124 41.635 123.325C40.4474 123.924 38.9866 124.201 37.7638 124.055C36.3282 123.881 34.8237 123.139 33.878 122.136C33.6858 121.935 33.4845 121.729 33.4322 121.688C33.3318 121.597 32.6477 120.507 32.4699 120.158C32.3059 119.827 32.0911 119.042 32.0279 118.532ZM38.5679 77.2673C38.6487 76.8032 38.7386 76.6358 39.1069 76.2409C39.4533 75.8689 40.1064 75.6192 40.6388 75.6605C41.3528 75.7266 42.0914 76.2789 42.3254 76.9301C42.483 77.3686 42.4286 78.0108 42.1964 78.4919C41.9149 79.0657 41.3667 79.5027 40.8411 79.564C40.173 79.6465 39.6987 79.5168 39.2183 79.1193C38.7012 78.6824 38.4386 77.9515 38.5679 77.2673Z" stroke="white" stroke-width="4" mask="url(#path-6-outside-1)"/>
<path d="M39.3402 78.7904C39.6671 79.1156 39.8363 79.1898 40.2995 79.226C40.718 79.2632 41.0326 79.1576 41.3945 78.8701C41.9033 78.4697 41.9033 78.4697 40.404 77.763C39.6634 77.4139 39.0383 77.1359 39.0184 77.143C38.9254 77.1764 38.8997 77.8984 38.9781 78.2003C39.0394 78.4334 39.1323 78.5875 39.3402 78.7904Z" fill="#363437"/>
<path d="M40.553 77.4469C41.3388 77.8172 41.9182 78.0517 41.9551 78.0084C42.1698 77.7287 41.9456 76.7289 41.5963 76.4043C41.3956 76.2213 40.9102 75.9981 40.6504 75.9639C40.3435 75.9241 39.6203 76.229 39.3876 76.5002C39.2701 76.6324 39.1858 76.7528 39.1929 76.7727C39.2025 76.7993 39.8124 77.0978 40.553 77.4469Z" fill="#363437"/>
</g>
<defs>
<clipPath id="clip0">
<rect width="128" height="128" fill="white"/>
</clipPath>
</defs>
</svg>
