<svg width="113" height="112" viewBox="0 0 113 112" fill="none" xmlns="http://www.w3.org/2000/svg">
<path d="M112.3 55.9001C112.3 51.4281 111.741 46.9561 110.903 42.7636L103.077 46.9561C103.636 49.7511 103.915 52.8256 103.915 55.9001C103.915 81.8936 83.5116 103.136 58.3566 103.136V111.8C88.2631 111.8 112.3 86.9246 112.3 55.9001ZM99.4431 55.9001C99.4431 53.3846 99.1636 51.1486 98.8841 48.6331L91.6171 50.5896C91.8966 52.2666 91.8966 53.9436 91.8966 55.6206C91.8966 75.1856 75.4061 91.3966 58.3566 91.3966V97.8251C80.9961 97.8251 99.4431 79.0986 99.4431 55.9001ZM87.1451 38.5711L93.8531 34.658C86.8656 22.0805 73.4496 13.6955 58.3566 13.6955V20.9625C68.4186 20.9625 82.1141 28.7885 87.1451 38.5711ZM79.8781 14.2545L84.0706 6.70801C76.5241 2.5155 67.5801 0 58.3566 0V8.66451C66.1826 8.66451 73.4496 10.621 79.8781 14.2545ZM54.4436 111.8V91.3966C37.6735 91.3966 20.9035 75.4651 20.9035 55.9001C20.9035 36.3351 38.2325 20.9625 54.4436 20.9625V0C24.537 0 0.5 24.8755 0.5 55.9001C0.5 76.2864 10.8788 94.0176 26.4818 103.781C32.5 107.546 33.2824 107.538 36.9818 108.837C42.4531 110.759 48.3255 111.8 54.4436 111.8Z" fill="#363437"/>
</svg>
