<?xml version="1.0" encoding="UTF-8"?>
<svg width="133px" height="20px" viewBox="0 0 133 20" version="1.1" xmlns="http://www.w3.org/2000/svg" xmlns:xlink="http://www.w3.org/1999/xlink">
    <!-- Generator: Sketch 54.1 (76490) - https://sketchapp.com -->
    <title>brand/logo/idle/royal</title>
    <desc>Created with Sketch.</desc>
    <defs>
        <polygon id="path-1" points="4.72189349e-05 0 132.984418 0 132.984418 20 4.72189349e-05 20"></polygon>
    </defs>
    <g id="Symbols" stroke="none" stroke-width="1" fill="none" fill-rule="evenodd">
        <g id="panel/header/landing/teacher" transform="translate(-330.000000, -30.000000)">
            <g id="brand/logo/black" transform="translate(330.000000, 30.000000)">
                <g id="Group-3">
                    <mask id="mask-2" fill="white">
                        <use xlink:href="#path-1"></use>
                    </mask>
                    <g id="Clip-2"></g>
                    <path d="M132.984465,10 C132.984465,9.19307692 132.88924,8.40923077 132.71028,7.65646154 L131.297018,8.42476923 C131.392242,8.93430769 131.441822,9.45953846 131.441822,10 C131.441822,14.6601538 127.716721,18.4363077 123.119328,18.4363077 L123.119328,20 C128.566032,20 132.984465,15.5250769 132.984465,10 L132.984465,10 Z M130.626666,9.98076923 C130.626666,9.54061538 130.588576,9.112 130.516174,8.69492308 L129.164925,9.06661538 C129.206793,9.36784615 129.229773,9.67292308 129.229773,9.98553846 C129.229773,13.4875385 126.198002,16.3666154 123.11555,16.3666154 L123.11555,17.4941538 C127.263419,17.4941538 130.626666,14.1312308 130.626666,9.98076923 L130.626666,9.98076923 Z M128.380619,6.9 L129.609728,6.20461538 C128.307115,3.96907692 125.888403,2.46723077 123.11555,2.46723077 L123.11555,3.76661538 C124.97031,3.76661538 127.45985,5.13338462 128.380619,6.9 L128.380619,6.9 Z M127.053924,2.55984615 L127.815723,1.20846154 C126.417885,0.436307692 124.818108,-1.69406589e-20 123.119328,-1.69406589e-20 L123.119328,1.55984615 C124.543923,1.55984615 125.880848,1.92276923 127.053924,2.55984615 L127.053924,2.55984615 Z M122.388064,20 L122.388064,16.3629231 C119.343387,16.3629231 116.274156,13.5135385 116.274156,10 C116.274156,6.48646154 119.445695,3.76661538 122.37862,3.76661538 L122.37862,-1.69406589e-20 C116.931758,-1.69406589e-20 112.522927,4.47492308 112.522927,10 C112.522927,15.5250769 116.937425,20 122.388064,20 L122.388064,20 Z M93.3725005,10.0015385 C93.3652602,9.878 93.3617975,9.75415385 93.3622697,9.63046154 C93.3712413,6.19861538 96.2248389,3.42384615 99.7357241,3.43261538 C101.153394,3.38830769 102.563509,3.65092308 103.865177,4.20153846 L105.116164,1.05646154 C103.392516,0.322769231 101.526109,-0.0350769231 99.6466378,0.00769230769 C99.4371431,-0.000461538462 99.227491,-0.00215384615 99.0176815,0.00261538462 C93.5006212,0.127538462 89.1319253,4.60061538 89.2597312,9.99338462 C89.2597312,16.1776923 94.1941099,19.9870769 99.8776957,19.9870769 C101.726632,20.0573846 103.565809,19.692 105.240035,18.9218462 L104.007149,15.7473846 C102.74719,16.3330769 101.362259,16.6152308 99.9678839,16.5703077 C99.8117466,16.5744615 99.655452,16.5730769 99.4994721,16.5661538 C95.9530153,16.4070769 93.2097525,13.468 93.3725005,10.0015385 L93.3725005,10.0015385 Z M77.0844863,19.6626154 L81.1599525,19.6626154 L81.1599525,0.339384615 L77.0844863,0.339384615 L77.0844863,19.6626154 Z M60.6017727,5.05753846 C60.6017727,4.06169231 61.4413253,3.43261538 63.2288768,3.43261538 C64.5289715,3.43953846 65.8001052,3.80923077 66.8927514,4.49784615 L68.1435809,1.35276923 C66.5172034,0.461692308 64.6819608,-0.00153846154 62.8174425,0.00769230769 C58.724033,0.00769230769 56.4723194,2.12169231 56.4723194,5.24923077 C56.4723194,7.74769231 57.6162768,9.53123077 61.5304117,11.2101538 C63.9613999,12.2412308 64.9983277,13.1126154 64.9983277,14.4598462 C64.9983277,15.8072308 63.7835419,16.5763077 61.8167159,16.5763077 C60.207652,16.5652308 58.6365206,16.098 57.2937715,15.2312308 L56.0427845,18.428 C57.8443443,19.4553846 59.8922295,19.9978462 61.9778898,20 C66.6426484,20 69.1276236,17.7107692 69.1276236,14.1472308 C69.1276236,11.2466154 67.4652022,9.53476923 64.0155443,7.99692308 C61.3342957,6.78707692 60.6017727,6.05338462 60.6017727,5.05753846 L60.6017727,5.05753846 Z M47.8008768,11.4864615 L47.8008768,0.339384615 L43.7255679,0.339384615 L43.7255679,11.7438462 C43.7255679,15.1312308 41.6879135,16.5644615 39.4889277,16.5644615 C37.2900993,16.5644615 35.2524449,15.1335385 35.2524449,11.7438462 L35.2524449,0.339384615 L31.177136,0.339384615 L31.177136,11.4864615 C31.177136,17.3569231 34.9661407,19.9952308 39.4889277,19.9952308 C44.0117147,19.9952308 47.8008768,17.3569231 47.8008768,11.4864615 L47.8008768,11.4864615 Z M18.197123,19.6626154 L22.373323,19.6626154 L20.7880259,0.339384615 L17.8025301,0.339384615 L11.1866851,10.0355385 L4.57084012,0.339384615 L1.57338213,0.339384615 L4.72189349e-05,19.6636923 L4.18002473,19.6636923 L5.02193834,7.24092308 L10.1702188,14.7538462 L12.2078733,14.7538462 L17.3382105,7.24092308 L18.197123,19.6626154 Z" id="Fill-1" fill="#000000" mask="url(#mask-2)"></path>
                </g>
            </g>
        </g>
    </g>
</svg>