<?xml version="1.0" encoding="UTF-8"?>
<svg width="1920px" height="220px" viewBox="0 0 1920 220" version="1.1" xmlns="http://www.w3.org/2000/svg" xmlns:xlink="http://www.w3.org/1999/xlink">
    <!-- Generator: Sketch 55.2 (78181) - https://sketchapp.com -->
    <title>Fill 1</title>
    <desc>Created with Sketch.</desc>
    <defs>
        <linearGradient x1="-2.22044605e-14%" y1="50%" x2="100%" y2="50%" id="linearGradient-1">
            <stop stop-color="#535878" offset="0%"></stop>
            <stop stop-color="#6B93CD" offset="100%"></stop>
        </linearGradient>
    </defs>
    <g id="ALL-PAGES" stroke="none" stroke-width="1" fill="none" fill-rule="evenodd">
        <g id="Desktop/september/2" transform="translate(0.000000, -3333.000000)" fill="url(#linearGradient-1)">
            <g id="Group-8" transform="translate(0.000000, 2928.000000)">
                <g id="Group-12" transform="translate(0.000000, 223.000000)">
                    <g transform="translate(-354.000000, 12.000000)" id="Fill-1">
                        <path d="M18.9653193,312.842214 C88.8517417,361.568546 38.0417036,637.455166 220,590 C401.958296,542.544834 470.242776,560 581,560 C691.757224,560 704.640792,563.292415 770,614 C821.923623,654.28602 996.363425,540.318821 1055.43382,573.968219 C1097.92031,598.170607 1145.43688,614.474987 1202.56011,613.989442 C1368.02626,612.574819 1578.51426,636.158909 1730,590 C1799.32345,568.874445 2061.49754,536.295298 2130,560 C2247.01949,600.496509 2267.6312,513.610573 2396,481 C2492.28344,456.537185 2497.42932,311.628389 2569.8882,246.188406 C2594.81524,223.675582 2559.56318,172.263693 2569.8882,140.305722 C2580.18976,108.347751 2572.69132,68.4139649 2544.53502,50.0863929 C2522.83723,36.0026894 2493.60973,37.6713191 2470.2934,48.8984224 C2457.50539,55.0610196 2446.21863,63.7167919 2436.03045,73.6738609 C2427.68755,81.848974 2468.02399,226.953892 2299.99509,266.578395 C2131.96619,306.202899 1989.97252,198.924867 1787.83406,198.924867 C1585.69561,198.924867 1299.72914,362.330664 1182.01322,362.330664 C1064.29729,362.330664 956.537811,211.829912 795.57205,175.750954 C708.804421,156.302808 555.580498,199.317878 482.685125,220.20065 C274.558913,279.823808 257.164709,84.0839774 124.854094,84.0839774 C-7.45652091,84.0839774 -19.1172294,286.312175 18.9653193,312.842214 Z"></path>
                    </g>
                </g>
            </g>
        </g>
    </g>
</svg>