<?xml version="1.0" encoding="UTF-8"?>
<svg width="1920px" height="390px" viewBox="0 0 1920 390" version="1.1" xmlns="http://www.w3.org/2000/svg" xmlns:xlink="http://www.w3.org/1999/xlink">
    <!-- Generator: Sketch 55.2 (78181) - https://sketchapp.com -->
    <title>Fill 2</title>
    <desc>Created with Sketch.</desc>
    <defs>
        <linearGradient x1="95.891383%" y1="50%" x2="1.95989884%" y2="50%" id="linearGradient-1">
            <stop stop-color="#FD9698" offset="0%"></stop>
            <stop stop-color="#F0B318" offset="100%"></stop>
        </linearGradient>
    </defs>
    <g id="ALL-PAGES" stroke="none" stroke-width="1" fill="none" fill-rule="evenodd">
        <g id="Desktop/september/2" transform="translate(0.000000, -3163.000000)" fill="url(#linearGradient-1)">
            <g id="Group-8" transform="translate(0.000000, 2928.000000)">
                <g id="Group-12" transform="translate(0.000000, 223.000000)">
                    <g transform="translate(-354.000000, 12.000000)" id="Fill-2">
                        <path d="M52.0857009,306.468403 C72.8163234,360.263541 118.47032,405.590823 173.064906,424.548157 C238.476274,447.259932 290.132604,410.137621 354.444901,399.381556 C542.67466,367.887203 732.813916,437.011123 881.332803,556.92737 C950.570565,612.836695 1015.48606,685.659517 1103.67816,697.385665 C1111.73062,698.45942 1119.71276,698.981487 1127.66529,699 L1128.66815,699 C1208.96693,698.781546 1283.79256,647.444937 1344.34508,592.050274 C1411.14046,530.949898 1474.23527,459.896921 1559.77776,430.327923 C1660.15587,395.630818 1763.74607,425.34792 1868.70548,455.065022 C1947.56844,477.395429 2027.20852,499.722133 2106.8486,494.72732 C2201.89418,488.766127 2291.07064,443.427737 2364.96743,383.323361 C2438.86421,323.22639 2499.43523,248.652236 2559.44005,174.663094 C2591.46483,135.163711 2625.25849,82.94218 2602.63317,37.3964443 C2575.804,-16.6171476 2559.44005,26.0468227 2444.73332,27.077286 C2330.02659,28.1077493 2186,208 2044,208 C1902,208 1855,145 1604,145 C1353,145 1217,212 1024,306 C831,400 558,0 354,0 C150,0 90.6447872,31.1377212 79.8844221,51.4626381 C38.6267088,129.391351 20.3865735,224.181724 52.0857009,306.468403 Z"></path>
                    </g>
                </g>
            </g>
        </g>
    </g>
</svg>